<?xml version="1.0" encoding="UTF-8" standalone="no"?>
<svg
   viewBox="0 0 100 100"
   version="1.1"
   id="svg402"
   sodipodi:docname="kibitz-3.svg"
   inkscape:version="1.1.2 (0a00cf5339, 2022-02-04)"
   xmlns:inkscape="http://www.inkscape.org/namespaces/inkscape"
   xmlns:sodipodi="http://sodipodi.sourceforge.net/DTD/sodipodi-0.dtd"
   xmlns="http://www.w3.org/2000/svg"
   xmlns:svg="http://www.w3.org/2000/svg">
  <defs
     id="defs406" />
  <sodipodi:namedview
     id="namedview404"
     pagecolor="#ffffff"
     bordercolor="#666666"
     borderopacity="1.0"
     inkscape:pageshadow="2"
     inkscape:pageopacity="0.0"
     inkscape:pagecheckerboard="0"
     showgrid="false"
     inkscape:zoom="7.17"
     inkscape:cx="14.993026"
     inkscape:cy="53.417015"
     inkscape:window-width="2560"
     inkscape:window-height="1403"
     inkscape:window-x="2256"
     inkscape:window-y="0"
     inkscape:window-maximized="1"
     inkscape:current-layer="svg402" />
  <!-- Main bubble body -->
  <path
     d="M 20.616065,14.201643 H 79.39907 q 19.594336,0 19.594336,19.594337 v 19.594335 q 0,19.594335 -19.594336,19.594335 H 54.906151 L 30.413232,97.47757 V 72.98465 h -9.797167 q -19.5943354,0 -19.5943354,-19.594335 V 33.79598 q 0,-19.594337 19.5943354,-19.594337 z"
     fill="#f35422"
     stroke="#f35422"
     stroke-width="1.95943"
     id="path400" />
  <g
     style="fill:none"
     id="g454"
     transform="matrix(0.10037765,0,0,0.10037765,12.728509,19.930457)">
    <path
       d="m 753.092,5.91932 c 3.465,-0.81956 2.87,-5.91944207 -0.691,-5.91944207 h -326.4 c -1.246,0 -2.362,0.77039207 -2.804,1.93547207 L 236.968,492.6 c -1.239,3.265 3.155,5.655 5.223,2.841 L 569.357,50.1132 c 0.421,-0.574 1.034,-0.9793 1.727,-1.1432 z"
       fill="#fff5d9"
       id="path1" />
    <path
       d="M 12.054907,40.2288 C 9.0444768,38.777 10.207772,34.4583 13.582982,34.5557 l 411.845088,11.881 c 2.17167,0.0626 3.63105,2.1382 2.85869,4.0656 l -62.7457,156.4787 c -0.66805,1.666 -2.71117,2.415 -4.38655,1.607 z"
       fill="#fff5d9"
       id="path2"
       style="stroke-width:1.0265" />
  </g>
</svg>